{"title":"Daylight Fades.2010.DvdRip.x264-miRaGe","uid":7078409,"size":725879311,"categoryP":"video","categoryS":"movies","magnet":"?xt=urn:btih:55edda67bbc0446f54428f235cacea8d8a9b45e0&amp;dn=Daylight+Fades.2010.DvdRip.x264-miRaGe&amp;tr=udp%3A%2F%2Ftracker.openbittorrent.com%3A80&amp;tr=udp%3A%2F%2Fopen.demonii.com%3A1337&amp;tr=udp%3A%2F%2Ftracker.coppersurfer.tk%3A6969&amp;tr=udp%3A%2F%2Fexodus.desync.com%3A6969","seeders":0,"leechers":1,"uploader":".BONE.","files":7,"time":1330930445,"description":"Online Info\n_________ &lt;a href=&quot;\nhttp://www.imdb.com/title/tt1368860/&quot; rel=&quot;nofollow&quot; target=&quot;_NEW&quot;&gt;\nhttp://www.imdb.com/title/tt1368860/&lt;/a&gt; &lt;a href=&quot;\nhttp://www.imdb.com/video/wab/vi1116865561/&quot; rel=&quot;nofollow&quot; target=&quot;_NEW&quot;&gt;\nhttp://www.imdb.com/video/wab/vi1116865561/&lt;/a&gt;\nRelease Date: (2010)\nGenre: Drama\nPlot: Hearts Break. Lives End. The Sun Always Rises.\n\n\nGeneral Info\n__________\nFormat : AVI\nFormat/Info : Audio Video Interleave\nFile size : 691 MiB\nDuration : 1h 36mn\nOverall bit rate : 1 004 Kbps\n\n\nVideo\n_____\nID : 0\nFormat : MPEG-4 Visual\nFormat profile : Advanced Simple@L5\nFormat settings, BVOP : 1\nFormat settings, QPel : No\nFormat settings, GMC : No warppoints\nFormat settings, Matrix : Custom\nCodec ID : XVID\nCodec ID/Hint : XviD\nDuration : 1h 36mn\nBit rate : 864 Kbps\nWidth : 640 pixels\nHeight : 272 pixels\nDisplay aspect ratio : 2.35:1\nFrame rate : 25.000 fps\nColor space : YUV\nChroma subsampling : 4:2:0\nBit depth : 8 bits\nScan type : Progressive\nCompression mode : Lossy\nBits/(Pixel*Frame) : 0.199\nStream size : 595 MiB (86%)\nWriting library : XviD 64\n\n\nAudio\n_____\nID : 1\nFormat : MPEG Audio\nFormat version : Version 1\nFormat profile : Layer 3\nMode : Joint stereo\nMode extension : MS Stereo\nCodec ID : 55\nCodec ID/Hint : MP3\nDuration : 1h 36mn\nBit rate mode : Variable\nBit rate : 128 Kbps\nChannel(s) : 2 channels\nSampling rate : 48.0 KHz\nCompression mode : Lossy\nStream size : 87.5 MiB (13%)\nAlignment : Aligned on interleaves\nInterleave, duration : 24 ms (0.60 video frame)\nInterleave, preload duration : 145 ms\n\n\nNotes\n_____\nEncoded By: Smallz\n\nLooking for cammers or suppliers who can bring unreleased movies/games/etc\n\nservers, accounts, etc\n\n\nGreetz\n______\nThanks to 26k, HDscene, BTVRG, FYI, Noir, and everyone else we respect\n\nspecial shout out to everyone at the underground","torrent":{"xt":"urn:btih:55edda67bbc0446f54428f235cacea8d8a9b45e0","amp;dn":"Daylight+Fades.2010.DvdRip.x264-miRaGe","amp;tr":["udp%3A%2F%2Ftracker.openbittorrent.com%3A80","udp%3A%2F%2Fopen.demonii.com%3A1337","udp%3A%2F%2Ftracker.coppersurfer.tk%3A6969","udp%3A%2F%2Fexodus.desync.com%3A6969"],"infoHash":"55edda67bbc0446f54428f235cacea8d8a9b45e0","infoHashBuffer":{"type":"Buffer","data":[85,237,218,103,187,192,68,111,84,66,143,35,92,172,234,141,138,155,69,224]},"announce":[],"urlList":[]}}